PathFileType	4	(X/Y/Z)	Patient4_TMGait_0pt2_03_right_11.trc.trc
DataRate	CameraRate	NumFrames	NumMarkers	Units	OrigDataRate	OrigDataStartFrame	OrigNumFrames
45.307443365696	45.307443365696	5	33	mm	45.307443365696	18	       141
Frame#	Time	Sacral			L.Shoulder			Chest			R.Shoulder			Neck			R.ASIS			L.ASIS			R.Thigh.Superior			R.Thigh.Lateral			R.Thigh.Inferior			R.Patella			L.Thigh.Superior			L.Thigh.Lateral			L.Thigh.Inferior			L.Patella			L.Shank.Superior			L.Shank.Lateral			L.Shank.Inferior			R.Shank.Superior			R.Shank.Lateral			R.Shank.Inferior			R.Heel			R.Midfoot.Superior			R.Midfoot.Lateral			R.Toe			L.Heel			L.Midfoot.Lateral			L.Midfoot.Superior			L.Toe			L.Elbow			L.Wrist			R.Elbow			R.Wrist			
		X1	Y1	Z1	X2	Y2	Z2	X3	Y3	Z3	X4	Y4	Z4	X5	Y5	Z5	X6	Y6	Z6	X7	Y7	Z7	X8	Y8	Z8	X9	Y9	Z9	X10	Y10	Z10	X11	Y11	Z11	X12	Y12	Z12	X13	Y13	Z13	X14	Y14	Z14	X15	Y15	Z15	X16	Y16	Z16	X17	Y17	Z17	X18	Y18	Z18	X19	Y19	Z19	X20	Y20	Z20	X21	Y21	Z21	X22	Y22	Z22	X23	Y23	Z23	X24	Y24	Z24	X25	Y25	Z25	X26	Y26	Z26	X27	Y27	Z27	X28	Y28	Z28	X29	Y29	Z29	X30	Y30	Z30	X31	Y31	Z31	X32	Y32	Z32	X33	Y33	Z33	

18	23.895214285714	739.032073246632	1012.804198979818	404.851218525457	981.993439853603	1443.284958764632	295.053613873124	1017.652269627195	1365.479484212517	478.617429630506	880.284623861080	1438.160676632882	613.407892925864	906.033855819894	1498.999632954401	440.123518734335	929.547524396004	949.546920873521	581.683309879651	985.923833916016	964.257911559407	312.279520340220	1003.013600628587	762.842866282195	566.703823756667	934.317876546343	648.517868499543	630.952181726491	1026.971689210041	601.980575885244	563.244583926758	1048.405746707745	519.251631085932	581.536471664326	1009.181799110573	743.794871105511	352.005942573229	923.992187233286	623.923569755960	266.828940461559	990.655089165401	551.295385149684	353.759880311081	984.611883238237	482.894358298451	362.360448579453	954.964453892989	410.245460991201	348.734762731595	870.588187853441	299.912540232414	282.918398329759	897.942964905011	188.628999273100	365.051558642165	1026.306062714088	429.860159273147	595.545958773072	961.415086530269	325.810891641167	665.845479996314	1022.475158537688	230.095100758076	620.672896580743	913.410092467417	46.472834893283	606.476195094479	1079.812006537761	118.083238222973	641.063111505579	1000.470726798328	44.483748709082	677.904826442063	1204.015768129716	79.293801301608	662.795354393895	757.291960667687	37.548591793063	388.110871912372	839.582734698398	35.209121269935	315.481777632317	918.934478126336	96.302153794584	352.540847670202	1049.421856828746	48.419270512907	336.818525719583	1156.105420617000	1167.006007182539	154.777298468031	1403.593649779847	1163.718174264433	230.407996823070	714.141672415645	1121.092052863084	662.494391237372	726.003206764037	858.218265208351	663.729730367158	
19	23.917285714286	739.531546135415	1013.044443629110	408.153625179215	984.760619338820	1442.621701911589	301.056689946802	1018.703426543122	1364.608830247662	484.892081371832	880.541753104513	1437.985570578562	618.432557329387	907.863319517497	1498.521304322115	445.506139915305	928.417438766524	948.217431690566	586.172286664692	986.923064449903	964.043050927626	317.260080664654	1000.801750082988	761.108662890875	571.485184054388	930.655308278426	646.675689230859	634.116387356941	1023.961624367599	600.626651617700	567.085019290794	1044.134102768520	518.957345959199	584.298925729327	1008.017396400712	742.839066516466	355.648319237321	922.167643033623	624.233165209890	269.164674312956	987.613363478399	550.479068127279	355.983627378704	980.744039506319	482.205980517941	364.077431926584	951.173468582266	410.050424804292	350.010552804782	866.637400574284	300.144297503336	283.650204696641	893.633624582479	188.547926111473	365.462699202343	1024.552388796355	429.153430737509	598.310903678472	961.957784321457	323.662688757057	668.478888685491	1024.860666527836	229.354956982936	622.882601749645	918.725384095277	45.197939417405	609.167400735999	1085.100913134817	117.524913786863	642.050507522333	1006.713573127530	43.200049111476	679.399854511403	1209.737947420661	79.199036275689	661.512363317779	752.816814261047	37.601403372518	388.094114717135	835.102326703296	35.231727276832	315.473355955759	914.435804224067	96.302104547202	352.610161602851	1044.914413415948	48.432588495869	336.858321660213	1162.387780008362	1169.430644895439	161.640908997379	1408.645073534328	1178.665312552409	239.510187113639	714.718658510616	1120.500422888035	666.051107178579	730.414813498310	857.688142049382	667.775806290009	
20	23.939357142857	740.368310981360	1012.780194989949	412.101655506448	987.197701296647	1441.537874368151	307.348636640288	1019.939961941230	1363.426448883078	491.375933944858	881.268512439627	1437.377894288875	624.015009265305	909.699410197917	1497.668139737731	451.332345758689	927.960072583993	946.368097622017	590.874987855554	988.197080021411	963.608284285672	322.418917384524	999.460113462255	758.934190670823	576.016177182507	928.037396139239	644.363354944713	636.933879538405	1021.937910721108	598.899099513205	570.429861485980	1040.724055866914	517.872833032369	586.713705400425	1007.651862751128	741.737150069462	359.408643127129	921.200439878101	624.249276578032	271.906101966309	985.628882735121	549.476438210274	358.540083637121	978.038803829865	481.241604874900	366.152380376849	948.270140859913	409.553209224726	351.649476218841	863.291720589721	300.354016918619	284.647785508845	889.638253951124	188.312973431931	365.995597377090	1022.978359607376	427.709648863083	600.689546894943	961.736019693685	321.273007322883	670.348819545548	1025.844047043568	228.008915529473	624.389373064753	921.276257872038	44.294792700189	610.693037722999	1087.933148236429	116.202433037360	642.249177556005	1009.867093551837	41.958768245022	680.067575321645	1212.614912761427	77.567569790698	660.086391747355	748.357108456495	37.667946483789	388.081118925507	830.636329194016	35.268487665991	315.476921953094	909.969827922358	96.301050721468	352.710066694549	1040.425334258558	48.401495791239	336.889879776279	1167.814291217372	1170.938551405480	168.794952204729	1412.385967788051	1192.332838023800	248.501037539752	715.915409482030	1119.482755265261	670.956774332744	734.720785440210	856.786333261068	673.536307408730	
21	23.961428571429	741.551222367744	1012.134762608712	416.668660750829	989.359052483479	1440.163878351237	313.893062278110	1021.366415649621	1362.057364514495	498.053095707530	882.417951663192	1436.451900671990	630.110136067928	911.542485308536	1496.559465774409	457.556643671562	928.176099183806	944.188364642871	595.835965710131	989.764410274302	963.027908466677	327.792558800320	999.004936275932	756.507083020010	580.363797918298	926.495469429768	641.790949068588	639.539318265392	1020.902047093119	596.952846189297	573.409566000954	1038.269165020902	516.180072588040	588.898393640033	1008.004258674949	740.514126435010	363.338468276380	920.950059875778	624.033398131473	275.079640355051	984.531085638188	548.323312056617	361.450384899226	976.310959696730	480.052522126955	368.610290876525	946.101091710030	408.816043632430	353.662338688791	860.435596226598	300.575760477969	285.924003226093	885.899028697720	187.957640183717	366.652497535421	1021.715288057458	425.697042212318	602.753803774306	961.006984991080	318.699916650992	671.626168134714	1025.708872111226	226.125174825850	625.283182033420	921.445636709105	43.613515203647	611.244122915269	1088.644862377079	114.213634213554	641.745385058178	1010.367106639378	40.737882945809	680.079879894773	1213.097625755486	74.675579739629	658.587027650772	743.912840725782	37.734418181158	388.070584300039	826.187083856194	35.312849886160	315.497290125520	905.536953112080	96.303960568577	352.837570024630	1035.957863992634	48.334858098130	336.913382895045	1172.370483817088	1171.561143998672	176.183115864167	1414.900372994381	1204.498474761088	257.290717422866	717.633875685052	1118.193570023957	677.140626029168	738.787440662459	855.658137957190	680.983658325539	
22	23.983500000000	743.070450700557	1011.258502678118	421.815218707890	991.316608215946	1438.647913260019	320.637172033368	1022.981410720604	1360.641450806354	504.891404411094	883.933295575268	1435.350537889265	636.637578174277	913.397441059667	1495.333354742336	464.106755242173	929.037227058016	941.902956321058	601.101443367132	991.617349993749	962.380568960776	333.417002320906	999.410601224536	754.047741296071	584.618695136725	926.028848467207	639.191498973286	642.100813297168	1020.816866148238	594.966357807272	576.176547536389	1036.819500486363	514.104695134841	590.972271986849	1008.918640080004	739.202100770634	367.497159200046	921.201191235748	623.672690991503	278.687132751412	984.059591338771	547.072300392846	364.712381134102	975.279673749256	478.713513173727	371.446097246822	944.442932234584	407.928684860193	356.030365123335	857.901470480451	300.849508603001	287.472036669845	882.334518796036	187.528605870581	367.423326541868	1020.879666692754	423.333345995039	604.592339694099	960.059905948927	316.067777396201	672.528464214466	1024.765472135612	223.857796258746	625.695578343986	919.702067462817	43.075736593623	611.074328030623	1087.631276881848	111.760208557090	640.693126736312	1008.743698887626	39.580330309530	679.644711422140	1211.689461557813	70.929701718922	657.098340069731	739.482964585956	37.785378915810	388.059758587769	821.757165386045	35.355008477456	315.538246458095	901.137267511000	96.312779790938	352.986133309674	1031.516577939337	48.240070891090	336.929691433820	1176.062687697400	1171.353784990742	183.749859493800	1416.323944077264	1214.967632223056	265.820397552198	719.779586162407	1116.805657818117	684.477097894262	742.556748394050	854.471012919300	690.053731600584	
